<?xml version="1.0" encoding="UTF-8"?><svg id="b" xmlns="http://www.w3.org/2000/svg" width="280.979" height="290.738" viewBox="0 0 280.979 290.738"><defs><style>.f{fill:#211715;}.g{fill:#fff;}.h{fill:#645d5c;}</style></defs><g id="c"><g id="d"><path class="g" d="M103.795,192.71c-2.793.997-9.671,5.223-9.671,8.96,0,2.891,17.278,8.28,29.149,11.815,2.941.876,4.96,3.217,6.372,5.942,3.015,5.82,6.937,12.564,10.197,17.408,3.512-5.87,7.464-13.441,9.125-18.672.687-2.165,2.647-3.671,4.891-4.021,4.792-.746,8.814-1.824,14.509-2.979,7.04-1.427,18.201-5.654,18.011-10.728-1.09-4.028-7.68-6.299-10.903-7.584l-71.68-.142Z"/><path class="g" d="M209.797,106.753c2.142-1.933,5.317-2.868,8.286-2.424,2.969.444,5.672,2.234,7.03,4.674.96,1.711,1.27,3.66,1.447,5.561.65,7.494-.827,15.131-4.224,21.96-1.654,3.327-3.811,6.512-6.809,8.936-2.303,1.837-5.122,3.199-8.118,3.659,0,0-.506.078-1.39.215-.666,2.493-1.415,4.594-1.782,5.709-2.264,6.145-14.495,26.775-30.153,35.621.244,2.846.631,5.695,1.123,8.508.807,4.63.561,8.752,6.963,11.067.316.105,10.137,4.77,15.627,7.366,0,0-2.05,35.224-54.791,35.224s-58.884-36.539-58.884-36.539c6.016-2.754,12.891-5.963,13.136-6.051,6.419-2.315,6.156-6.437,6.98-11.067.552-3.189.96-6.088,1.202-9.283-5.814-3.46-11.22-8.245-16.157-14.154-7.082-8.476-11.079-17.907-13.427-26.209-1.648-.253-2.647-.406-2.647-.406-2.996-.46-5.815-1.822-8.118-3.659-2.998-2.424-5.155-5.609-6.809-8.936-3.397-6.829-4.874-14.466-4.224-21.96.177-1.901.487-3.85,1.447-5.561,1.359-2.44,4.062-4.23,7.03-4.674s6.144.491,8.286,2.424c0,0-17.891-63.11,72.776-63.11,85.333,0,66.198,63.11,66.198,63.11Z"/><path class="f" d="M85.536,218.707c3.601-1.649,7.194-3.315,10.789-4.977.736-.34,1.594-.61,2.278-1.045-.732.299-.801.335-.207.106.35-.139.699-.284,1.044-.434.456-.199.907-.406,1.341-.652.764-.433,1.483-.962,2.14-1.542,2.248-1.983,3.164-4.838,3.617-7.705.653-4.132,1.354-8.25,1.693-12.424.122-1.509-1.374-2.8-2.8-2.8-1.617,0-2.677,1.286-2.8,2.8-.298,3.676-.917,7.296-1.493,10.935-.181,1.143-.389,2.291-.796,3.379.195-.521-.207.41-.263.51-.13.23-.27.457-.426.669.282-.381-.294.301-.373.378-.084.083-.658.565-.478.432-1.669,1.236-3.954,1.933-5.842,2.807-3.415,1.58-6.83,3.161-10.251,4.728-1.375.63-1.714,2.618-1.005,3.831.826,1.412,2.451,1.637,3.831,1.005h0Z"/><path class="f" d="M171.285,190.683c.34,3.815.981,7.577,1.553,11.361.405,2.679,1.094,5.195,2.881,7.305.959,1.132,2.244,2.041,3.571,2.691.507.249,1.032.465,1.556.675.139.056,1.041.428.305.107-.663-.29.12.064.292.144,2.029.938,4.047,1.901,6.068,2.857,2.957,1.399,5.914,2.801,8.871,4.2,1.366.646,3.021.38,3.831-1.005.712-1.218.369-3.182-1.005-3.831-5.183-2.451-10.322-5.039-15.572-7.344-1.497-.657-2.777-1.157-3.777-2.244-.215-.256-.241-.28-.077-.071-.103-.144-.201-.292-.293-.443-.181-.296-.346-.605-.483-.924.223.521-.131-.455-.16-.554-.1-.339-.183-.682-.258-1.027-.842-3.89-1.353-7.937-1.705-11.896-.134-1.506-1.191-2.8-2.8-2.8-1.411,0-2.935,1.285-2.8,2.8h0Z"/><path class="h" d="M2.819,287.937c3.909-11.728,12.229-32.934,24.889-43.913,7.042-6.108,13.475-9.599,22.754-13.767,9.715-4.365,28.034-12.708,37.546-16.802,2.572-3.838,4.314-8.324,6.116-12.47,0,.422,0,.685,0,.685,0,2.891,17.278,8.28,29.149,11.815,2.941.876,4.96,3.217,6.372,5.942,3.015,5.82,6.937,12.564,10.197,17.408,3.512-5.87,7.464-13.441,9.125-18.672.687-2.165,2.647-3.671,4.891-4.021,4.792-.746,8.814-1.824,14.509-2.979,7.04-1.427,18.201-5.654,18.011-10.728l-.053-1.403c.1.327.2.654.2.654,1.266,4.133,3.477,10.383,5.852,13.513,9.324,3.993,28.218,12.599,38.14,17.057,9.279,4.169,15.711,7.659,22.754,13.767,12.659,10.979,20.979,32.186,24.889,43.913H2.819Z"/><path class="h" d="M116.759,5.789c-14.2,3.716-27.152,10.789-37.012,20.817-15.586,15.852-25.333,39.63-20.905,66.08,0,0,.917,5.431,3.306,11.711.129-.027.258-.049.389-.069,2.69-.402,5.55.328,7.655,1.911,4.782-.311,5.812-7.5,10.155-9.637,2.014-.991,4.398-.712,6.648-.602,18.606.908,34.96-11.171,49.477-22.629-.598,2.907,1.888,5.763,4.789,6.591,2.901.828,6.019.112,8.872-.861,6.29-2.146,12.608-7.323,17.698-12.293,5.079.484,10.645,1.465,14.446,2.881,11.751,3.856,24.274,16.021,25.432,37.247l2.087-.183c2.142-1.933,5.317-2.868,8.286-2.424.539.081,1.069.205,1.584.37,5.074-17.545,3.827-45.698-7.771-63.871C197.571,17.115,168.392,2.301,140.278,2.77c-8.008.009-15.941,1.036-23.519,3.019Z"/><path class="f" d="M204.503,141.41c-.094,3.089-.828,6.105-1.717,9.053-.33,1.094-.692,2.176-1.055,3.259-.09.267-.177.534-.276.797-.044.118-.099.233-.14.352-.16.471.309-.682.039-.094-1.361,2.967-2.957,5.805-4.697,8.566-5.008,7.945-10.963,15.351-18.507,21.251-3.997,3.126-8.613,5.719-13.628,6.863-3.512.801-2.026,6.202,1.489,5.4,10.317-2.354,18.956-9.827,25.75-17.604,5.53-6.33,10.713-13.482,14.212-21.165,2.337-5.131,3.958-11.049,4.13-16.678.11-3.605-5.49-3.601-5.6,0h0Z"/><path class="f" d="M70.928,140.331c1.756,10.155,5.007,20.141,10.362,28.991,6.01,9.932,14.78,18.907,25.123,24.316,5.456,2.853,11.301,4.609,17.422,5.236,1.507.154,2.8-1.397,2.8-2.8,0-1.642-1.289-2.645-2.8-2.8-9.846-1.008-18.861-5.981-26.07-12.65-8.101-7.495-14.137-16.778-17.75-27.201-1.645-4.745-2.832-9.634-3.687-14.579-.258-1.491-2.088-2.328-3.444-1.956-1.576.433-2.214,1.949-1.956,3.444h0Z"/><path class="f" d="M181.534,72.389c.562.187,1.12.386,1.671.603.138.054.708.293.288.113.321.138.64.283.956.431,1.14.537,2.249,1.139,3.321,1.8,2.326,1.433,3.87,2.66,5.862,4.634,4.176,4.139,7.261,9.32,9.099,15.03,1.248,3.876,1.942,7.875,2.179,11.936.088,1.51,1.224,2.8,2.8,2.8,1.448,0,2.888-1.283,2.8-2.8-.825-14.143-6.903-27.854-18.978-35.838-2.633-1.741-5.515-3.113-8.51-4.109-1.435-.477-3.059.552-3.444,1.956-.419,1.526.516,2.965,1.956,3.444h0Z"/><path class="f" d="M168.698,61.95c-4.606,4.798-9.57,9.476-15.439,12.697-2.738,1.502-5.953,2.837-9.117,2.876-1.292.016-2.583-.21-3.609-1.012-.802-.627-1.468-1.736-1.36-2.395.469-2.859-2.433-4.497-4.68-2.724-8.463,6.676-17.202,13.291-27.11,17.687-4.601,2.041-9.605,3.538-14.629,3.997-2.72.248-5.386.073-8.106.011-2.838-.065-5.475.571-7.65,2.449-1.704,1.472-2.857,3.489-4.101,5.337-.674,1.001-.747,1.068-1.526,1.897-.089.095-.529.443-.117.136-.2.148-.416.28-.635.397-.193.103-.31.127-.565.144-1.509.098-2.8,1.217-2.8,2.8,0,1.44,1.283,2.898,2.8,2.8,4.793-.31,6.816-4.273,9.295-7.77.339-.478.887-1.179,1.609-1.781-.34.283.108-.077.205-.135.195-.117.387-.251.598-.34.506-.212,1.07-.291,1.611-.32,2.786-.15,5.568.243,8.364.056,11.367-.761,21.857-5.772,31.24-11.96,5.359-3.534,10.439-7.471,15.476-11.444l-4.68-2.724c-.724,4.414,1.97,8.234,6.057,9.799,4.26,1.631,9.193.239,13.203-1.469,7.606-3.24,13.968-9.153,19.625-15.047,2.496-2.601-1.458-6.566-3.96-3.96h0Z"/><path class="f" d="M5.519,288.681c2.18-6.525,4.622-12.8,7.581-18.946,3.398-7.056,7.377-14.036,12.659-19.865,5.489-6.057,12.457-10.563,19.727-14.19,6.932-3.459,14.101-6.486,21.162-9.671,7.668-3.459,15.33-6.937,23.058-10.259,1.39-.597,1.701-2.64,1.005-3.831-.84-1.436-2.436-1.604-3.831-1.005-6.924,2.976-13.792,6.083-20.662,9.179-7.115,3.206-14.29,6.311-21.334,9.668-7.76,3.698-15.291,8.262-21.401,14.38-5.825,5.831-10.284,12.998-14,20.31s-6.765,14.968-9.362,22.742c-.479,1.434.554,3.059,1.956,3.444,1.527.42,2.963-.516,3.444-1.956h0Z"/><path class="f" d="M103.05,190.01c-2.115.781-4.097,1.905-5.909,3.241-1.998,1.474-4.028,3.205-5.096,5.501-.947,2.036-1.021,4.167.603,5.844,1.142,1.179,2.72,1.983,4.184,2.683,4.627,2.213,9.547,3.842,14.417,5.423,2.622.851,5.255,1.667,7.893,2.466,2.495.756,4.788,1.181,6.517,3.222,1.001,1.181,1.649,2.621,2.369,3.978.841,1.586,1.705,3.161,2.587,4.724,1.869,3.312,3.82,6.579,5.891,9.768,1.955,3.012,6.806.208,4.835-2.826-3.437-5.294-6.424-10.815-9.451-16.346-1.301-2.377-3.141-4.61-5.548-5.929-2.273-1.246-5.009-1.773-7.474-2.528-5.031-1.542-10.059-3.131-14.976-5.009-1.991-.76-3.202-1.227-5.113-2.215-.614-.318-1.205-.667-1.787-1.04-.648-.414.27.352-.189-.145-.075-.082-.188-.217-.28-.278-.353-.236.387.567.172.211-.222-.369.242.669.157.372-.059-.232-.035-.051.072.541.018-.324.01-.306-.025.053-.002.011.214-.731.08-.363-.092.254.268-.497.329-.595.439-.711,1.295-1.553,2.208-2.317.792-.663,1.773-1.309,2.811-1.915.442-.258.892-.505,1.35-.734.185-.093.376-.175.56-.27.488-.251-.42.147.302-.12,1.418-.524,2.381-1.897,1.956-3.444-.375-1.364-2.019-2.482-3.444-1.956h0Z"/><path class="f" d="M174.73,195.552c1.98.785,3.3,1.25,5.161,2.249.884.475,1.883,1.08,2.415,1.561.182.165.364.328.536.504-.055-.056.559.64.34.36-.21-.27.285.449.253.396.091.155.175.314.25.477l-.086-.174c-.02.002-.039-.246.011-.419,0,.002-.116.368-.103.401l-.068.199c.149-.338.153-.365.013-.079-.108.15-.196.326-.295.483-.238.377.439-.477-.072.097-.141.158-.283.313-.433.463-.156.157-.317.308-.482.454-.029.026-.646.534-.304.269-1.677,1.297-3.783,2.329-5.644,3.083-4.887,1.981-10.068,2.875-15.193,4.007-2.794.618-5.666.994-8.442,1.663-2.935.708-5.252,2.888-6.262,5.702-2.147,5.979-5.048,11.59-8.256,17.068-1.825,3.116,3.013,5.938,4.835,2.826,3.173-5.418,6.204-11.047,8.33-16.97.372-1.036.552-1.937,1.439-2.613.898-.685,2.169-.75,3.344-.954,3.017-.524,6-1.217,8.99-1.874,5.476-1.203,10.81-2.377,15.89-4.851,2.082-1.014,4.183-2.269,5.806-3.944,1.521-1.57,2.928-3.97,2.373-6.249-1.338-5.495-8.263-7.717-12.859-9.539-1.406-.557-3.075.61-3.444,1.956-.437,1.592.544,2.885,1.956,3.444h0Z"/><path class="f" d="M137.322,238.079c-.076,15.458.734,30.906.74,46.364.001,3.603,5.601,3.609,5.6,0-.006-15.459-.816-30.906-.74-46.364.018-3.604-5.582-3.608-5.6,0h0Z"/><path class="f" d="M118.624,259.694c1.735.581,3.605.79,5.42.939,1.496.122,2.997.156,4.497.157,1.465,0,2.868-1.288,2.8-2.8s-1.23-2.799-2.8-2.8c-2.068,0-4.141-.064-6.193-.339l.744.1c-1.009-.141-2.013-.332-2.98-.656-1.39-.466-3.121.537-3.444,1.956-.352,1.547.467,2.946,1.956,3.444h0Z"/><path class="f" d="M118.624,277.401c1.735.581,3.605.79,5.42.939,1.496.122,2.997.156,4.497.157,1.465,0,2.868-1.288,2.8-2.8s-1.23-2.799-2.8-2.8c-2.068,0-4.141-.064-6.193-.339l.744.1c-1.009-.141-2.013-.332-2.98-.656-1.39-.466-3.121.537-3.444,1.956-.352,1.547.467,2.946,1.956,3.444h0Z"/><path class="f" d="M91.919,199.083c-1.971,4.501-3.732,9.138-6.507,13.227-.824,1.215-.271,3.157,1.005,3.831,1.417.749,2.951.292,3.831-1.005,2.774-4.089,4.535-8.726,6.507-13.227.586-1.338.438-3.069-1.005-3.831-1.212-.641-3.204-.428-3.831,1.005h0Z"/><path class="f" d="M183.826,200.431c.761,2.477,1.603,4.933,2.59,7.33.993,2.412,2.038,4.898,3.634,6.984.463.605.907,1.076,1.673,1.287.67.185,1.563.101,2.158-.282,1.145-.738,1.957-2.587,1.005-3.831-.671-.877-1.231-1.83-1.741-2.807-.283-.542-.549-1.093-.805-1.649-.132-.288-.262-.578-.388-.869-.006-.015-.271-.644-.111-.257s-.101-.25-.107-.263c-.951-2.334-1.768-4.722-2.508-7.13-.43-1.398-1.976-2.431-3.444-1.956-1.409.456-2.416,1.945-1.956,3.444h0Z"/><path class="f" d="M280.859,287.193c-4.831-14.461-11.099-29.368-21.328-40.889-11.049-12.445-27.249-18.307-42.034-24.977-7.781-3.51-15.556-7.041-23.398-10.412-1.388-.597-3.002-.413-3.831,1.005-.69,1.18-.392,3.231,1.005,3.831,13.76,5.915,27.478,12.035,41.039,18.394,7.533,3.533,14.871,7.735,20.858,13.593,5.598,5.477,9.778,12.279,13.326,19.212,3.6,7.035,6.453,14.215,8.964,21.732.479,1.434,1.93,2.372,3.444,1.956,1.401-.385,2.437-2.004,1.956-3.444h0Z"/><path class="f" d="M31.713,240.096c1.827,12.497,4.236,24.909,6.222,37.381.582,3.657,1.142,7.319,1.638,10.989.203,1.5,2.127,2.318,3.444,1.956,1.619-.445,2.159-1.94,1.956-3.444-1.812-13.395-4.286-26.695-6.523-40.023-.466-2.779-.93-5.559-1.337-8.347-.219-1.498-2.116-2.321-3.444-1.956-1.606.441-2.175,1.942-1.956,3.444h0Z"/><path class="f" d="M240.143,288.466c1.803-13.396,4.282-26.696,6.522-40.023.467-2.779.931-5.559,1.338-8.347.218-1.494-.371-3.009-1.956-3.444-1.317-.362-3.224.45-3.444,1.956-1.827,12.497-4.241,24.908-6.226,37.381-.582,3.657-1.14,7.319-1.634,10.989-.201,1.497.359,3.006,1.956,3.444,1.304.358,3.241-.447,3.444-1.956h0Z"/><path class="f" d="M157.702,234.393c9.753-.906,19.16-3.613,27.88-8.082,3.208-1.644.378-6.478-2.826-4.835-7.787,3.99-16.338,6.508-25.054,7.317-1.506.14-2.8,1.187-2.8,2.8,0,1.406,1.285,2.941,2.8,2.8h0Z"/><path class="f" d="M121.876,228.793c-8.716-.81-17.267-3.327-25.054-7.317-3.201-1.641-6.038,3.19-2.826,4.835,8.721,4.469,18.127,7.176,27.88,8.082,1.508.14,2.8-1.387,2.8-2.8,0-1.631-1.288-2.66-2.8-2.8h0Z"/><path class="f" d="M211.777,108.733c2.346-2.028,5.909-2.239,8.545-.688,3.118,1.835,3.464,5.39,3.568,8.726.251,8.034-1.98,16.667-6.873,23.146-2.577,3.412-6.113,5.791-10.352,6.502-1.492.25-2.327,2.094-1.956,3.444.435,1.582,1.947,2.207,3.444,1.956,10.329-1.732,16.49-11.484,19.376-20.762,1.514-4.869,2.195-10.075,1.923-15.17s-1.651-9.939-6.305-12.678c-4.902-2.885-11.085-2.107-15.331,1.563-1.145.989-1.015,2.945,0,3.96,1.135,1.135,2.812.992,3.96,0h0Z"/><path class="f" d="M72.803,104.773c-3.698-3.196-8.923-4.289-13.513-2.43-2.271.92-4.191,2.375-5.63,4.363-1.492,2.061-2.026,4.563-2.315,7.041-1.144,9.842,1.495,20.986,7.422,28.996,3.363,4.545,8.013,8.122,13.699,9.076,1.49.25,3.015-.392,3.444-1.956.369-1.342-.456-3.193-1.956-3.444-7.945-1.332-12.58-8.467-15.048-15.582-1.375-3.965-2.143-8.099-2.194-12.298-.04-3.337-.093-7.571,2.677-9.873,2.654-2.206,6.832-2.2,9.453.066,1.143.988,2.836,1.124,3.96,0,1.011-1.011,1.149-2.967,0-3.96h0Z"/><path class="f" d="M222.892,103.499c2.158-8.654,2.758-17.738,2.243-26.626-.555-9.569-2.354-19.21-6.039-28.088-7.26-17.492-21.746-31.328-38.616-39.582C162.663.485,142.681-1.947,123.195,1.516s-37.989,13.267-50.497,28.808c-12.416,15.426-18.932,35.116-17.538,54.933.193,2.738.537,5.466.983,8.174.246,1.493,2.097,2.326,3.444,1.956,1.585-.436,2.202-1.947,1.956-3.444-3.066-18.623,1.304-37.788,11.934-53.35,10.444-15.289,26.458-25.557,44.266-30.165,18.018-4.662,37.224-3.699,54.528,3.209,16.258,6.49,30.604,18.239,39.029,33.695,4.192,7.69,6.55,16.428,7.644,25.086,1.078,8.532,1.087,17.587-.276,25.882-.315,1.919-.706,3.824-1.177,5.71-.872,3.497,4.527,4.989,5.4,1.489h0Z"/><g id="e"><path class="f" d="M128.399,162.805c4.063,2.145,8.441,3.034,13.034,3.004s9.325-.904,13.02-3.783c1.194-.93.976-2.983,0-3.96-1.179-1.179-2.763-.933-3.96,0,.806-.628.034-.046-.172.086-.268.172-.545.331-.827.479-.164.086-1.081.493-.465.243-.375.152-.755.291-1.141.415-2.322.746-4.437.935-6.885.92-2.385-.014-4.314-.21-6.573-.885-.418-.125-.825-.273-1.237-.416-.135-.047-.265-.106-.399-.155.681.253.074.033-.053-.027-.512-.24-1.016-.492-1.516-.756-1.337-.706-3.045-.34-3.831,1.005-.74,1.265-.337,3.122,1.005,3.831h0Z"/><path class="f" d="M140.318,131.7c.583,2.223,1.143,4.482,1.477,6.758l-.1-.744c.04.312.057.619.025.933l.1-.744c-.022.145-.054.281-.103.419l.282-.669c-.043.098-.088.181-.148.27l.438-.567c-.069.084-.135.149-.221.218l.567-.438c-.171.11-.351.198-.535.283l.669-.282c-.295.123-.587.213-.902.263l.744-.1c-.285.034-.562.032-.847-.002l.744.1c-.319-.045-.633-.122-.952-.165-.782-.105-1.446-.134-2.158.282-.581.34-1.135,1.006-1.287,1.673-.163.717-.128,1.521.282,2.158.364.565.974,1.192,1.673,1.287.668.09,1.316.262,1.994.292,1.011.044,1.958-.259,2.864-.67,1.104-.501,1.96-1.457,2.254-2.647.248-1.004.138-1.92-.032-2.926-.368-2.177-.871-4.335-1.431-6.47-.372-1.417-2.018-2.417-3.444-1.956-1.458.472-2.354,1.926-1.956,3.444h0Z"/><path class="f" d="M103.944,112.739c-1.129,3.667-.393,12.104,6.555,12.822,9.183-.055,9.672-10.255,6.58-15.051-2.531-3.927-9.973-5.56-13.135,2.229Z"/><path class="f" d="M177.481,112.739c1.129,3.667.393,12.104-6.554,12.822-9.183-.055-9.672-10.255-6.581-15.051,2.531-3.926,9.973-5.559,13.135,2.229Z"/></g></g></g></svg>